<svg width="62" height="130" viewBox="0 0 62 130" version="1.1" xmlns="http://www.w3.org/2000/svg" xmlns:xlink="http://www.w3.org/1999/xlink">
<title>Cup and Saucer</title>
<desc>Created using Figma</desc>
<g id="Canvas" transform="translate(206 302)">
<g id="Cup and Saucer">
<g id="Ellipse">
<use xlink:href="#path0_fill" transform="translate(-273 -301.323)" fill="#FFFFFF"/>
<mask id="mask0_outline_ins">
<use xlink:href="#path0_fill" fill="white" transform="translate(-273 -301.323)"/>
</mask>
<g mask="url(#mask0_outline_ins)">
<use xlink:href="#path1_stroke_2x" transform="translate(-273 -301.323)" fill="#E5E5E5"/>
</g>
</g>
<g id="Ellipse 2.2">
<use xlink:href="#path2_fill" transform="translate(-255.962 -287.302)" fill="#EDEDED"/>
</g>
<g id="Group">
<g id="Rectangle">
<use xlink:href="#path3_fill" transform="matrix(-0.865195 -0.501435 0.498567 -0.866851 -159.668 -198.285)" fill="#F5F5F5"/>
</g>
<g id="Rectangle">
<use xlink:href="#path4_fill" transform="matrix(-0.865195 -0.501435 0.498567 -0.866851 -159.864 -199.761)" fill="#FFFFFF"/>
<mask id="mask1_outline_ins">
<use xlink:href="#path4_fill" fill="white" transform="matrix(-0.865195 -0.501435 0.498567 -0.866851 -159.864 -199.761)"/>
</mask>
<g mask="url(#mask1_outline_ins)">
<use xlink:href="#path5_stroke_2x" transform="matrix(-0.865195 -0.501435 0.498567 -0.866851 -159.864 -199.761)" fill="#D9D9D9"/>
</g>
</g>
<g id="Ellipse 2">
<use xlink:href="#path6_fill" transform="matrix(-0.865195 -0.501435 0.498567 -0.866851 -191.217 -172.506)" fill="#FFFFFF"/>
<mask id="mask2_outline_ins">
<use xlink:href="#path6_fill" fill="white" transform="matrix(-0.865195 -0.501435 0.498567 -0.866851 -191.217 -172.506)"/>
</mask>
<g mask="url(#mask2_outline_ins)">
<use xlink:href="#path7_stroke_2x" transform="matrix(-0.865195 -0.501435 0.498567 -0.866851 -191.217 -172.506)" fill="#D9D9D9"/>
</g>
</g>
<g id="Ellipse 2.1">
<use xlink:href="#path8_fill" transform="matrix(-0.865195 -0.501435 0.498567 -0.866851 -194.711 -186.421)" fill="#442E2D"/>
<mask id="mask3_outline_ins">
<use xlink:href="#path8_fill" fill="white" transform="matrix(-0.865195 -0.501435 0.498567 -0.866851 -194.711 -186.421)"/>
</mask>
<g mask="url(#mask3_outline_ins)">
<use xlink:href="#path9_stroke_2x" transform="matrix(-0.865195 -0.501435 0.498567 -0.866851 -194.711 -186.421)" fill="#FFFFFF"/>
</g>
</g>
</g>
</g>
</g>
<defs>
<path id="path0_fill" d="M 128.829 64.6615C 128.829 100.373 99.9898 129.323 64.4146 129.323C 28.8394 129.323 0 100.373 0 64.6615C 0 28.9499 28.8394 0 64.4146 0C 99.9898 0 128.829 28.9499 128.829 64.6615Z"/>
<path id="path1_stroke_2x" d="M 126.829 64.6615C 126.829 99.2757 98.8781 127.323 64.4146 127.323L 64.4146 131.323C 101.102 131.323 130.829 101.47 130.829 64.6615L 126.829 64.6615ZM 64.4146 127.323C 29.9512 127.323 2 99.2757 2 64.6615L -2 64.6615C -2 101.47 27.7276 131.323 64.4146 131.323L 64.4146 127.323ZM 2 64.6615C 2 30.0473 29.9512 2 64.4146 2L 64.4146 -2C 27.7276 -2 -2 27.8526 -2 64.6615L 2 64.6615ZM 64.4146 2C 98.8781 2 126.829 30.0473 126.829 64.6615L 130.829 64.6615C 130.829 27.8526 101.102 -2 64.4146 -2L 64.4146 2Z"/>
<path id="path2_fill" d="M 97.15 48.7611C 97.15 59.6568 95.9431 59.0585 93.982 66.9329C 85.9082 88.2849 76.1812 113.12 48.575 113.12C 18.4042 113.12 9.88404 80.259 3.77135 66.9329C 1.65939 60.4214 0 59.6568 0 48.7611C 0 21.8311 21.7477 0 48.575 0C 75.4022 0 97.15 21.8311 97.15 48.7611Z"/>
<path id="path3_fill" d="M 0 4C 0 1.79086 1.79086 0 4 0L 15.6298 0C 17.839 0 19.6298 1.79086 19.6298 4L 19.6298 14.4571C 19.6298 16.6662 17.839 18.4571 15.6298 18.4571L 4 18.4571C 1.79086 18.4571 0 16.6662 0 14.4571L 0 4Z"/>
<path id="path4_fill" d="M 0 3C 0 1.34315 1.34315 0 3 0L 14.5158 0C 16.1727 0 17.5158 1.34315 17.5158 3L 17.5158 13.1009C 17.5158 14.7577 16.1727 16.1009 14.5158 16.1009L 3 16.1009C 1.34315 16.1009 0 14.7577 0 13.1009L 0 3Z"/>
<path id="path5_stroke_2x" d="M 3 2L 14.5158 2L 14.5158 -2L 3 -2L 3 2ZM 15.5158 3L 15.5158 13.1009L 19.5158 13.1009L 19.5158 3L 15.5158 3ZM 14.5158 14.1009L 3 14.1009L 3 18.1009L 14.5158 18.1009L 14.5158 14.1009ZM 2 13.1009L 2 3L -2 3L -2 13.1009L 2 13.1009ZM 3 14.1009C 2.44772 14.1009 2 13.6532 2 13.1009L -2 13.1009C -2 15.8623 0.238575 18.1009 3 18.1009L 3 14.1009ZM 15.5158 13.1009C 15.5158 13.6532 15.0681 14.1009 14.5158 14.1009L 14.5158 18.1009C 17.2773 18.1009 19.5158 15.8623 19.5158 13.1009L 15.5158 13.1009ZM 14.5158 2C 15.0681 2 15.5158 2.44771 15.5158 3L 19.5158 3C 19.5158 0.238577 17.2773 -2 14.5158 -2L 14.5158 2ZM 3 -2C 0.238575 -2 -2 0.238578 -2 3L 2 3C 2 2.44772 2.44772 2 3 2L 3 -2Z"/>
<path id="path6_fill" d="M 94.5252 47.353C 94.5252 73.5054 73.365 94.7061 47.2626 94.7061C 21.1602 94.7061 0 73.5054 0 47.353C 0 21.2007 21.1602 0 47.2626 0C 73.365 0 94.5252 21.2007 94.5252 47.353Z"/>
<path id="path7_stroke_2x" d="M 92.5252 47.353C 92.5252 72.4044 72.2568 92.7061 47.2626 92.7061L 47.2626 96.7061C 74.4732 96.7061 96.5252 74.6064 96.5252 47.353L 92.5252 47.353ZM 47.2626 92.7061C 22.2684 92.7061 2 72.4044 2 47.353L -2 47.353C -2 74.6064 20.052 96.7061 47.2626 96.7061L 47.2626 92.7061ZM 2 47.353C 2 22.3016 22.2684 2 47.2626 2L 47.2626 -2C 20.052 -2 -2 20.0997 -2 47.353L 2 47.353ZM 47.2626 2C 72.2568 2 92.5252 22.3016 92.5252 47.353L 96.5252 47.353C 96.5252 20.0997 74.4732 -2 47.2626 -2L 47.2626 2Z"/>
<path id="path8_fill" d="M 74.2913 37.2168C 74.2913 57.771 57.6607 74.4335 37.1457 74.4335C 16.6307 74.4335 0 57.771 0 37.2168C 0 16.6625 16.6307 0 37.1457 0C 57.6607 0 74.2913 16.6625 74.2913 37.2168Z"/>
<path id="path9_stroke_2x" d="M 72.2913 37.2168C 72.2913 56.6701 56.5525 72.4335 37.1457 72.4335L 37.1457 76.4335C 58.7688 76.4335 76.2913 58.872 76.2913 37.2168L 72.2913 37.2168ZM 37.1457 72.4335C 17.7389 72.4335 2 56.6701 2 37.2168L -2 37.2168C -2 58.872 15.5225 76.4335 37.1457 76.4335L 37.1457 72.4335ZM 2 37.2168C 2 17.7635 17.7389 2 37.1457 2L 37.1457 -2C 15.5225 -2 -2 15.5616 -2 37.2168L 2 37.2168ZM 37.1457 2C 56.5525 2 72.2913 17.7635 72.2913 37.2168L 76.2913 37.2168C 76.2913 15.5616 58.7688 -2 37.1457 -2L 37.1457 2Z"/>
</defs>
</svg>
